<?xml version="1.0" encoding="utf-8"?>
<?xml-stylesheet type="text/xsl" href="rss1.xsl"?>
<rss version="2.0" xmlns:atom="http://www.w3.org/2005/Atom" xmlns:content="http://purl.org/rss/1.0/modules/content/" xmlns:dc="http://purl.org/dc/elements/1.1/" xmlns:media="http://search.yahoo.com/mrss/">
<channel>
 <title>Getty</title>
 <link>http://www.gettyimg.com/</link>
 <atom:link href="http://www.gettyimg.com/" rel="self" type="application/rss+xml" />

 
                <item>
                <title><![CDATA[【PRORES HD】Taylor Swift - Mine (Prores 1080i)]]></title>
                <link><![CDATA[https://sharemania.us/threads/taylor-swift-mine-prores-1080i.237730/]]></link>
                <description><![CDATA[<article>
<blockquote class="messageText SelectQuoteContainer ugc baseHtml">
Like Lavender Haze, this one was taken for free on Baidu. So, it would have been stupid not to share it.<br>
<br>
Be aware that the stream is marked as progressive but the content is interlaced. You'll have to force de-interlacing to have a proper image and it could be complicated in some case depending of the video engine decoder used / video renderer / skills!<br>
<br>
<div class="ToggleTriggerAnchor bbCodeSpoilerContainer">
<button type="button" class="button bbCodeSpoilerButton ToggleTrigger Tooltip JsOnly" data-target="> .SpoilerTarget"><span>Spoiler: <span class="SpoilerTitle">Preview</span></span></button>
<div class="SpoilerTarget bbCodeSpoilerText"><a href="https://postimg.cc/qNYkRJXn" target="_blank" class="externalLink" rel="nofollow"><img src="https://i.postimg.cc/qNYkRJXn/Taylor-Swift-Mine-Lpcm-Master-1080p-Pro-Res-whalehd-11435126-mov-thumbs-2024-02-14-14-45-33.jpg" class="bbCodeImage LbImage" alt="[​IMG]" data-url="https://i.postimg.cc/qNYkRJXn/Taylor-Swift-Mine-Lpcm-Master-1080p-Pro-Res-whalehd-11435126-mov-thumbs-2024-02-14-14-45-33.jpg"></a></div>
</div><br>
<div class="ToggleTriggerAnchor bbCodeSpoilerContainer">
<button type="button" class="button bbCodeSpoilerButton ToggleTrigger Tooltip JsOnly" data-target="> .SpoilerTarget"><span>Spoiler: <span class="SpoilerTitle">Media Info</span></span></button>
<div class="SpoilerTarget bbCodeSpoilerText">
<div class="bbCodeBlock bbCodeCode">
<div class="type">Code:</div>
<pre>General
Complete name                  : Taylor Swift - Mine (Lpcm-Master-1080p-ProRes) 【whalehd】....11435126.mov
Format                         : MPEG-4
Format profile                 : QuickTime
Codec ID                       : qt   2005.03 (qt  )
File size                      : 5.89 GiB
Duration                       : 4 min 0 s
Overall bit rate mode          : Variable
Overall bit rate               : 210 Mb/s
Encoded date                   : UTC 2016-12-22 11:59:57
Tagged date                    : UTC 2016-12-22 12:03:30
Writing library                : Apple QuickTime

Video
ID                             : 1
Format                         : ProRes
Format version                 : Version 0
Format profile                 : 422 HQ
Codec ID                       : apch
Duration                       : 4 min 0 s
Bit rate mode                  : Variable
Bit rate                       : 208 Mb/s
Width                          : 1 920 pixels
Height                         : 1 080 pixels
Display aspect ratio           : 16:9
Frame rate mode                : Constant
Frame rate                     : 29.970 (30000/1001) FPS
Color space                    : YUV
Chroma subsampling             : 4:2:2
Scan type                      : Progressive
Bits/(Pixel*Frame)             : 3.346
Stream size                    : 5.82 GiB (99%)
Writing library                : arh0
Language                       : English
Encoded date                   : UTC 2016-12-22 11:59:57
Tagged date                    : UTC 2016-12-22 12:03:30
Color primaries                : BT.709
Transfer characteristics       : BT.709
Matrix coefficients            : BT.709

Audio
ID                             : 2
Format                         : PCM
Format settings                : Little / Signed
Codec ID                       : in24
Duration                       : 4 min 0 s
Bit rate mode                  : Constant
Bit rate                       : 2 304 kb/s
Channel(s)                     : 2 channels
Channel layout                 : L R
Sampling rate                  : 48.0 kHz
Bit depth                      : 24 bits
Stream size                    : 66.1 MiB (1%)
Language                       : English
Encoded date                   : UTC 2016-12-22 11:59:57
Tagged date                    : UTC 2016-12-22 12:03:31
</pre>
</div></div>
</div><br>
<div class="bbCodeBlock bbCodeVfcHH HiddenContent">
<div class="attribution type">Hidden Content:</div>
<blockquote>You must reply before you can see the hidden data contained here.</blockquote>
</div>
<div class="messageTextEndMarker">&nbsp;</div>
</blockquote>
</article>]]></description>
                <author><![CDATA[wasper]]></author>
                </item>

                
                <item>
                <title><![CDATA[【YOUTUBE】WEB-RiP - Mariah Carey, Da Brat, Xscape - Always Be My Baby (Mr. Dupri Mix) (Color Version) (1996)/low quality]]></title>
                <link><![CDATA[https://sharemania.us/threads/mariah-carey-da-brat-xscape-always-be-my-baby-mr-dupri-mix-color-version-1996-low-quality.237729/]]></link>
                <description><![CDATA[<article>
<blockquote class="messageText SelectQuoteContainer ugc baseHtml">
<div style="text-align: center"><img src="https://i.postimg.cc/QMGYbdMs/Always-Be-My-Baby-by-novak.jpg" class="bbCodeImage LbImage" alt="[​IMG]" data-url="https://i.postimg.cc/QMGYbdMs/Always-Be-My-Baby-by-novak.jpg" style=""> <br>
<img src="https://i.postimg.cc/dt3Mf3jK/Mariah-Carey-feat-Da-Brat-Xscape-Always-Be-My-Baby-Mr-Dupri-Mix-Color-Version-1996-mp4-sn.jpg" class="bbCodeImage LbImage" alt="[​IMG]" data-url="https://i.postimg.cc/dt3Mf3jK/Mariah-Carey-feat-Da-Brat-Xscape-Always-Be-My-Baby-Mr-Dupri-Mix-Color-Version-1996-mp4-sn.jpg" style=""> <br>
<img src="https://i.postimg.cc/rF3XWcXC/Mariah-Carey-feat-Da-Brat-Xscape-Always-Be-My-Baby-Mr-Dupri-Mix-Color-Version-1996-mp4-th.jpg" class="bbCodeImage LbImage" alt="[​IMG]" data-url="https://i.postimg.cc/rF3XWcXC/Mariah-Carey-feat-Da-Brat-Xscape-Always-Be-My-Baby-Mr-Dupri-Mix-Color-Version-1996-mp4-th.jpg" style=""> <br>
<div class="bbCodeBlock bbCodeVfcHH HiddenContent">
<div class="attribution type">Hidden Content:</div>
<blockquote>You must either reply or click 'Like' to see the hidden information contained here.</blockquote>
</div></div>
<div class="messageTextEndMarker">&nbsp;</div>
</blockquote>
</article>]]></description>
                <author><![CDATA[Fan Made]]></author>
                </item>

                </channel></rss>